<?xml version="1.0" encoding="UTF-8"?>
<svg id="Layer_1" xmlns="http://www.w3.org/2000/svg" xmlns:xlink="http://www.w3.org/1999/xlink" viewBox="0 0 663.66 663.67">
  <defs>
    <style>
      .cls-1 {
        fill: url(#linear-gradient-3);
      }

      .cls-2 {
        fill: url(#linear-gradient-2);
      }

      .cls-3 {
        fill: url(#linear-gradient);
      }
    </style>
    <linearGradient id="linear-gradient" x1="-1789.53" y1="835.65" x2="2125.14" y2="-94.13" gradientUnits="userSpaceOnUse">
      <stop offset="0" stop-color="#ae712e"/>
      <stop offset=".23" stop-color="#a56a2d"/>
      <stop offset=".27" stop-color="#ab7334"/>
      <stop offset=".32" stop-color="#be8c47"/>
      <stop offset=".39" stop-color="#d8b163"/>
      <stop offset=".46" stop-color="#edd07e"/>
      <stop offset=".52" stop-color="#fce690"/>
      <stop offset=".57" stop-color="#f2d77f"/>
      <stop offset=".69" stop-color="#d8b054"/>
      <stop offset=".75" stop-color="#ca9a3c"/>
      <stop offset=".88" stop-color="#f4cb64"/>
      <stop offset="1" stop-color="#dcaf4d"/>
    </linearGradient>
    <linearGradient id="linear-gradient-2" x1="-1789.48" y1="835.87" x2="2125.19" y2="-93.92" xlink:href="#linear-gradient"/>
    <linearGradient id="linear-gradient-3" x1="-1789.5" y1="835.78" x2="2125.17" y2="-94.01" xlink:href="#linear-gradient"/>
  </defs>
  <path class="cls-3" d="M472.06,220.77c-6.38-14.11-18.77-25.12-33.04-30.81-27.14-10.81-157.86-8.95-190.52-5.6-23.56,2.42-43.2,10.85-55.39,31.86-11.76,20.29-11.28,54.51-11.19,78.26.12,31.87-.56,69.51.57,100.96,1.06,29.55,3.79,54.05,28.95,71.99,13.76,9.81,34.59,12.26,54.6,12.98,37.03,1.33,73.41.66,110.26.66,15.66,0,38.71-.49,53.1-4.22,11.64-3.02,20.05-7.13,28.4-14.63,13.71-12.33,19.79-28.32,21.72-49.75,2.16-24.1,1.57-73.76,1.48-103.77-.08-26.21,1.8-64.18-8.93-87.94ZM394.54,400.92c-16.8,14.64-34.72,22.93-57.38,24.33-51.91,3.23-96.15-36.39-99.21-87.74-3.1-52.08,36.61-95.79,88.42-98.91,51.48-3.1,95.64,36.97,98.61,87.79,1.69,29.06-10.05,56.19-30.43,74.52ZM431.6,256.39c-13.1,1.67-23.04-7.75-24.48-18.96-1.56-12.08,7.21-22.82,19.19-24.38,12.87-1.67,22.77,7.96,24.23,18.97,1.74,13.17-7.65,22.92-18.93,24.37Z"/>
  <path class="cls-2" d="M663.15,317.99C655.22,144.05,511.46,2.69,336.56.04,156.35-2.62,2.65,140.73,0,332.53c1.49,183.6,151.68,333.21,335.89,331.12,181.53.71,337.88-163.22,327.26-345.65ZM513.83,375.04c-.51,42.79-1,76.52-29.26,107.36-1.71,1.87-3.98,3.82-6.06,5.6-28.11,24.12-60.61,25.18-98.93,25.98-30.1.62-61.13.3-91.28-.07-29.02-.35-55.59-.46-80.27-10.99-33.46-14.28-52.1-45.08-56.61-80.17-3.75-29.17-2.51-103.2-2.2-133.72.29-28.69.34-55.86,10.9-80.21,5.79-13.37,16.02-26.69,27.52-35.59,28.39-21.97,58.26-22.41,96.01-23.19,29.83-.62,60.61-.49,90.46-.09,27.13.37,57.9.59,80.53,10.95,16.59,7.58,27.11,16.45,38.16,30.42,9.89,12.51,16.37,33.17,18.58,49.59,3.88,28.75,2.82,104.19,2.46,134.14Z"/>
  <path class="cls-1" d="M328.46,271.36c-47.47,3.39-69.96,51.85-51.36,87.89,11.08,21.47,33.26,34.7,57.95,33.27,33.25-1.92,59.33-30.87,57.13-63.98-2.19-32.78-30.55-59.55-63.72-57.18Z"/>
</svg>